<svg width="117" height="32" viewBox="0 0 117 32" fill="none" xmlns="http://www.w3.org/2000/svg">
<g clip-path="url(#clip0_303_2870)">
<g clip-path="url(#clip1_303_2870)">
<path fill-rule="evenodd" clip-rule="evenodd" d="M17.8648 6.0268L15.8685 4.0305C15.7622 3.92421 15.6182 3.86471 15.4675 3.86458C15.3169 3.8644 15.1727 3.92417 15.0663 4.03055L13.0977 5.99919L12.9736 5.87519C12.2514 5.15297 11.2285 4.91496 10.3083 5.16206L13.6542 1.81618C14.6556 0.814757 16.2791 0.814624 17.2807 1.81618L20.7282 5.26371C19.7793 4.96438 18.7007 5.1909 17.9486 5.94296L17.8648 6.0268Z" fill="#353535"/>
<path fill-rule="evenodd" clip-rule="evenodd" d="M15.0986 10.1094C14.5768 10.2096 14.0801 10.4615 13.6766 10.865L13.3747 11.1669L11.0527 8.8462C10.9469 8.73907 10.8022 8.67922 10.652 8.67922C10.5017 8.67922 10.357 8.73907 10.2499 8.8462L8.28254 10.8135L8.15734 10.6897C7.43525 9.96759 6.41262 9.72966 5.49158 9.97731L8.8377 6.63119C9.83944 5.62945 11.4631 5.62945 12.4648 6.63119L15.5201 9.68649L18.5226 6.68411C19.5243 5.68237 21.1479 5.68237 22.1497 6.68411L25.7893 10.3237C24.8405 10.0246 23.7622 10.2514 23.0095 11.0041L22.926 11.0876L20.7375 8.89905C20.6304 8.79192 20.4857 8.73207 20.3354 8.73207C20.1851 8.73207 20.0405 8.79192 19.9347 8.89905L17.7713 11.0625L17.5737 10.865C17.1076 10.3989 16.5149 10.1345 15.9069 10.0719C15.637 10.0454 15.3643 10.0566 15.0986 10.1094Z" fill="#353535"/>
<path fill-rule="evenodd" clip-rule="evenodd" d="M2.9666 16.13C2.86086 16.2357 2.80104 16.3804 2.80104 16.5307C2.80104 16.681 2.86086 16.8256 2.9666 16.9314L5.16905 19.1338L5.09113 19.2131C4.33426 19.9686 4.11024 21.0552 4.41633 22.0082L0.753013 18.3435C-0.248726 17.3418 -0.248726 15.7181 0.753013 14.7178L3.83338 11.6361C4.83512 10.6343 6.45875 10.6343 7.46049 11.6361L10.7301 14.9056L13.8605 11.7738C14.8622 10.772 16.4859 10.772 17.4877 11.7738L20.4831 14.7693L23.5454 11.707C24.5471 10.7053 26.1708 10.7053 27.1725 11.707L30.1513 14.6858C31.1531 15.6875 31.1531 17.3112 30.1513 18.3129L26.5923 21.8719C26.879 20.93 26.6494 19.8656 25.9051 19.1199L25.8104 19.0267L27.9364 16.9007C28.0435 16.795 28.1033 16.6503 28.1033 16.5001C28.1033 16.3498 28.0435 16.2051 27.9364 16.0994L25.7589 13.922C25.6532 13.8149 25.5085 13.755 25.3582 13.755C25.208 13.755 25.0633 13.8149 24.9576 13.922L22.7412 16.1383L22.3795 15.7766C21.9092 15.3063 21.311 15.042 20.696 14.9821C20.5569 14.9696 20.4178 14.9668 20.2786 14.9738C19.6247 15.0099 18.9819 15.2771 18.4824 15.7766L18.1735 16.0855L16.0755 13.9874C15.9684 13.8816 15.825 13.8218 15.6748 13.8218C15.5231 13.8218 15.3798 13.8816 15.2727 13.9874L12.9297 16.3303L12.6237 16.0242C12.1854 15.586 11.6372 15.3272 11.0696 15.2451C10.8484 15.2131 10.6257 15.2076 10.4045 15.2298C9.79233 15.2896 9.19546 15.554 8.72659 16.0242L8.47475 16.2761L6.04833 13.851C5.94259 13.7439 5.79791 13.6841 5.64765 13.6841C5.49739 13.6841 5.35271 13.7439 5.24697 13.8497C5.24697 13.851 5.24693 13.851 5.24554 13.851L2.9666 16.13Z" fill="#353535"/>
<path fill-rule="evenodd" clip-rule="evenodd" d="M8.82964 26.4216L5.83834 23.4289C4.8366 22.4272 4.8366 20.8036 5.83834 19.8032L8.91871 16.7214C9.92045 15.7197 11.5441 15.7197 12.5458 16.7214L15.5385 19.7142L18.6703 16.5823C19.6721 15.5819 21.2943 15.5819 22.2961 16.5823L25.2874 19.5736C26.2877 20.5739 26.2877 22.1976 25.2874 23.1993L21.8508 26.6359C22.0234 25.7065 21.8202 24.6908 21.0272 23.8978L20.9938 23.8644L23.0724 21.7872C23.1782 21.6814 23.238 21.5368 23.238 21.3865C23.238 21.2362 23.1782 21.0916 23.0724 20.9858L20.8839 18.7973C20.7782 18.6902 20.6334 18.6303 20.4832 18.6303C20.3329 18.6303 20.1882 18.6902 20.0825 18.7973L17.8216 21.0567L17.4849 20.7201C17.0008 20.2359 16.3802 19.9687 15.7458 19.9214C15.6081 19.9103 15.4689 19.9103 15.3312 19.9214C14.6968 19.9687 14.0749 20.2345 13.5893 20.7201L13.254 21.0554L11.1337 18.935C11.0279 18.8293 10.8832 18.7695 10.7329 18.7695C10.5826 18.7695 10.438 18.8293 10.3322 18.935H10.3309L8.51939 20.7478C8.28982 20.9774 8.16042 21.2905 8.16042 21.6161C8.16042 21.9416 8.28982 22.2547 8.51939 22.4843L9.77435 23.7392C10.0053 23.9701 10.3169 24.0995 10.6425 24.0995C10.9694 24.0995 11.2811 23.9701 11.5121 23.7392L13.3514 21.8999V21.9012L13.7256 21.527C14.726 20.5253 16.3496 20.5253 17.3514 21.527L20.3315 24.5072C21.3333 25.5089 21.3333 27.1326 20.3315 28.1329L17.2498 31.2147C16.2481 32.2164 14.6244 32.2164 13.6241 31.2147L10.2167 27.8087C11.1809 28.1399 12.2926 27.92 13.0633 27.1506L13.1246 27.0894L15.0349 28.9997C15.142 29.1068 15.2867 29.1667 15.4369 29.1667C15.5872 29.1667 15.7305 29.1068 15.8377 28.9997L17.6491 27.1882C17.8801 26.9586 18.0095 26.6456 18.0095 26.3201C18.0095 25.9945 17.8801 25.6814 17.6491 25.4519L16.408 24.2095C16.1771 23.9785 15.864 23.8491 15.5385 23.8491C15.2129 23.8491 14.8999 23.9785 14.6703 24.2095L12.831 26.0487L12.8296 26.0474L12.4568 26.4216C11.455 27.422 9.83138 27.422 8.82964 26.4216Z" fill="#353535"/>
<path d="M42.5221 21.1822C41.7915 21.1822 41.1308 21.0289 40.5435 20.7305C39.955 20.4402 39.4861 20.0289 39.1344 19.5047C38.7827 18.9805 38.592 18.3917 38.5648 17.7223V14.1254C38.592 13.4641 38.785 12.8592 39.1414 12.335C39.499 11.8027 39.9715 11.3834 40.5588 11.0769C41.1462 10.7704 41.801 10.6172 42.5221 10.6172C43.46 10.6172 44.2995 10.8511 45.0419 11.3188C45.7844 11.7785 46.3682 12.4156 46.7956 13.206C47.2219 14.0044 47.4363 14.9077 47.4363 15.9158C47.4363 16.9159 47.2219 17.8111 46.7956 18.6014C46.3682 19.3999 45.7844 20.0289 45.0419 20.4886C44.2995 20.9483 43.46 21.1822 42.5221 21.1822ZM36.8845 25.2227L36.8845 10.8268H39.6459V13.4964L39.1781 15.9642L39.6198 18.416V25.2227H36.8845ZM42.0425 18.6418C42.5493 18.6418 42.9958 18.5207 43.3818 18.2869C43.7678 18.061 44.071 17.7385 44.2912 17.3191C44.5115 16.9078 44.6216 16.432 44.6216 15.8997C44.6216 15.3593 44.5115 14.8835 44.2912 14.4722C44.071 14.0609 43.7678 13.7383 43.383 13.5044C42.9982 13.2786 42.5529 13.1576 42.0496 13.1576C41.5464 13.1576 41.0988 13.2786 40.7092 13.5044C40.3185 13.7383 40.0153 14.0609 39.801 14.4722C39.5855 14.8835 39.4777 15.3593 39.4777 15.8997C39.4777 16.432 39.5843 16.9078 39.7974 17.3191C40.0118 17.7385 40.3138 18.061 40.7033 18.2869C41.0941 18.5207 41.5405 18.6418 42.0425 18.6418Z" fill="#353535"/>
<path d="M53.284 21.1822C52.3604 21.1822 51.5291 20.9483 50.7926 20.4886C50.0561 20.0289 49.4758 19.3999 49.0507 18.6014C48.6256 17.8111 48.4125 16.9159 48.4125 15.9158C48.4125 14.9077 48.6256 14.0044 49.0507 13.206C49.4758 12.4156 50.0561 11.7785 50.7926 11.3188C51.5291 10.8511 52.3604 10.6172 53.284 10.6172C54.0122 10.6172 54.6623 10.7704 55.2366 11.0608C55.811 11.3592 56.2715 11.7705 56.6197 12.2947C56.9678 12.8108 57.1537 13.4076 57.1786 14.0689V17.7223C57.1537 18.3917 56.9702 18.9805 56.628 19.5047C56.2846 20.0289 55.8239 20.4402 55.2437 20.7305C54.6647 21.0289 54.0122 21.1822 53.284 21.1822ZM53.7979 18.6418C54.5676 18.6418 55.1893 18.3836 55.6617 17.8675C56.1342 17.3594 56.3698 16.6981 56.3698 15.8997C56.3698 15.3593 56.2632 14.8835 56.0501 14.4722C55.837 14.0609 55.5374 13.7383 55.1525 13.5044C54.7677 13.2786 54.3178 13.1576 53.8038 13.1576C53.2994 13.1576 52.8553 13.2786 52.4705 13.5044C52.0856 13.7383 51.7813 14.0608 51.5599 14.4802C51.3373 14.8915 51.226 15.3674 51.226 15.8997C51.226 16.432 51.3361 16.9078 51.5564 17.3191C51.7778 17.7385 52.0809 18.061 52.4681 18.2869C52.8541 18.5207 53.2982 18.6418 53.7979 18.6418ZM56.2289 20.9725V18.2465L56.6694 15.7706L56.2289 13.3189V10.8268H58.9631V20.9725H56.2289Z" fill="#353535"/>
<path d="M62.4798 20.9727V6.61719H65.2412V20.9727H62.4798ZM60.1187 13.2465V10.8271L73.8818 10.8271V13.2465L60.1187 13.2465ZM68.758 20.9727V6.61719L71.5194 6.61719V20.9727L68.758 20.9727Z" fill="#353535"/>
<path d="M79.2627 21.1905C78.2053 21.1905 77.2616 20.9647 76.4303 20.505C75.5991 20.0534 74.9442 19.4244 74.4647 18.6179C73.9851 17.8195 73.7458 16.9081 73.7458 15.9C73.7458 14.8919 73.9804 13.9886 74.4516 13.1901C74.9217 12.3998 75.5623 11.7708 76.3723 11.303C77.1834 10.8433 78.0869 10.6094 79.0839 10.6094C80.0573 10.6094 80.9169 10.8272 81.6641 11.2627C82.4113 11.6982 82.9975 12.295 83.4249 13.0611C83.8524 13.8192 84.0656 14.6902 84.0656 15.6661C84.0656 15.8435 84.0549 16.029 84.0336 16.2226C84.0135 16.4081 83.9779 16.6178 83.9293 16.8516L75.3942 16.8678V14.8274L82.6481 14.8112L81.5244 15.6499C81.5043 15.0531 81.3977 14.5451 81.2071 14.1419C81.0164 13.7386 80.7441 13.4321 80.3888 13.2144C80.0336 13.0047 79.5955 12.8998 79.0733 12.8998C78.5274 12.8998 78.0537 13.0208 77.6511 13.2628C77.2485 13.4966 76.9383 13.8434 76.7192 14.2789C76.5002 14.7225 76.3912 15.2467 76.3912 15.8597C76.3912 16.4726 76.5072 17.0048 76.7405 17.4645C76.9726 17.9162 77.3042 18.263 77.7352 18.5049C78.1651 18.7469 78.6695 18.8679 79.2461 18.8679C79.7577 18.8679 80.2242 18.7792 80.6481 18.6017C81.0721 18.4324 81.438 18.1662 81.7458 17.8194L83.3622 19.4404C82.8649 20.0211 82.2633 20.4566 81.5564 20.747C80.8495 21.0454 80.0845 21.1905 79.2627 21.1905Z" fill="#353535"/>
<path d="M85.1572 20.9725V10.8268H87.9187V20.9725H85.1572ZM87.9187 15.3674L86.8422 14.6415C86.9749 13.4076 87.3431 12.4318 87.9447 11.7059C88.5462 10.9801 89.4106 10.6172 90.5379 10.6172C91.034 10.6172 91.4781 10.6978 91.8689 10.8672C92.2585 11.0285 92.6113 11.2866 92.9263 11.6495L91.2152 13.6334C91.0542 13.456 90.8659 13.327 90.6492 13.2463C90.4337 13.1657 90.1851 13.1253 89.9021 13.1253C89.3147 13.1253 88.8375 13.3027 88.4693 13.6737C88.1022 14.0367 87.9187 14.6012 87.9187 15.3674Z" fill="#353535"/>
<path d="M100.002 20.9725V15.1577C100.002 14.5528 99.813 14.0609 99.4353 13.6818C99.0563 13.3028 98.5732 13.1092 97.9847 13.1092C97.5845 13.1092 97.2292 13.1979 96.9214 13.3673C96.6123 13.5366 96.3719 13.7786 96.199 14.0931C96.0261 14.3996 95.9386 14.7545 95.9386 15.1577L94.8634 14.6012C94.8634 13.8189 95.035 13.1254 95.3796 12.5286C95.7242 11.9318 96.2002 11.464 96.8088 11.1253C97.4163 10.7865 98.1055 10.6172 98.874 10.6172C99.6224 10.6172 100.29 10.8026 100.876 11.1736C101.462 11.5446 101.923 12.0285 102.259 12.6253C102.595 13.2302 102.763 13.8674 102.763 14.5448V20.9725H100.002ZM93.1783 20.9725V10.8268H95.9386V20.9725H93.1783Z" fill="#353535"/>
<path d="M108.165 21.2064C107.583 21.2064 107.018 21.1339 106.469 20.9806C105.92 20.8274 105.413 20.6097 104.95 20.3354C104.486 20.0532 104.085 19.7225 103.75 19.3354L105.393 17.674C105.74 18.0611 106.142 18.3595 106.6 18.5612C107.059 18.7628 107.568 18.8596 108.128 18.8596C108.576 18.8596 108.917 18.795 109.149 18.666C109.382 18.5289 109.498 18.3434 109.498 18.0934C109.498 17.8111 109.375 17.6015 109.127 17.4482C108.881 17.295 108.564 17.1659 108.175 17.053C107.787 16.9482 107.377 16.8272 106.946 16.6981C106.516 16.5691 106.105 16.3997 105.716 16.1739C105.325 15.9562 105.008 15.6498 104.763 15.2707C104.518 14.8836 104.396 14.3835 104.396 13.7706C104.396 13.1173 104.554 12.5609 104.873 12.0851C105.191 11.6092 105.642 11.2463 106.227 10.9802C106.812 10.714 107.505 10.585 108.307 10.585C109.143 10.585 109.901 10.7302 110.581 11.0205C111.262 11.3108 111.824 11.7544 112.264 12.3351L110.616 13.9964C110.308 13.6254 109.96 13.3512 109.571 13.1819C109.183 13.0125 108.77 12.9319 108.333 12.9319C107.92 12.9319 107.606 12.9883 107.39 13.1174C107.175 13.2383 107.067 13.4158 107.067 13.6416C107.067 13.8916 107.19 14.0852 107.435 14.2223C107.68 14.3674 107.997 14.4884 108.385 14.5932C108.773 14.6981 109.182 14.8191 109.611 14.9481C110.039 15.0852 110.448 15.2707 110.836 15.5045C111.224 15.7465 111.542 16.061 111.787 16.4482C112.031 16.8433 112.154 17.3514 112.154 17.9805C112.154 18.9644 111.795 19.7548 111.078 20.3354C110.36 20.9161 109.389 21.2064 108.165 21.2064Z" fill="#353535"/>
<path d="M114.89 21.1903C114.389 21.1903 113.977 21.021 113.653 20.6823C113.329 20.3435 113.167 19.9322 113.167 19.4483C113.167 18.9483 113.329 18.5289 113.653 18.1983C113.977 17.8676 114.389 17.6982 114.89 17.6982C115.389 17.6982 115.8 17.8676 116.122 18.1983C116.444 18.5289 116.605 18.9483 116.605 19.4483C116.605 19.9322 116.444 20.3435 116.122 20.6823C115.8 21.021 115.389 21.1903 114.89 21.1903Z" fill="#353535"/>
</g>
</g>
<defs>
<clipPath id="clip0_303_2870">
<rect width="116.73" height="32" fill="white"/>
</clipPath>
<clipPath id="clip1_303_2870">
<rect width="116.73" height="32" fill="white"/>
</clipPath>
</defs>
</svg>
