<svg xmlns="http://www.w3.org/2000/svg">
  <defs>
    <symbol id="block" viewBox="0 0 16 18">
      <path d="M14.5999 11.9304V6.06371C14.5996 5.80651 14.5317 5.5539 14.403 5.33123C14.2743 5.10856 14.0893 4.92364 13.8666 4.79504L8.73324 1.86172C8.51027 1.73299 8.25736 1.66522 7.9999 1.66522C7.74245 1.66522 7.48953 1.73299 7.26657 1.86172L2.13324 4.79504C1.91049 4.92364 1.72549 5.10856 1.59677 5.33123C1.46806 5.5539 1.40017 5.80651 1.3999 6.06371V11.9304C1.40017 12.1876 1.46806 12.4402 1.59677 12.6628C1.72549 12.8855 1.91049 13.0704 2.13324 13.199L7.26657 16.1324C7.48953 16.2611 7.74245 16.3289 7.9999 16.3289C8.25736 16.3289 8.51027 16.2611 8.73324 16.1324L13.8666 13.199C14.0893 13.0704 14.2743 12.8855 14.403 12.6628C14.5317 12.4402 14.5996 12.1876 14.5999 11.9304Z" stroke="currentColor" stroke-width="1.46667" stroke-linecap="round" stroke-linejoin="round"/>
      <path d="M4.69995 3.28455L7.99995 5.19121L11.3 3.28455" stroke="currentColor" stroke-width="1.46667" stroke-linecap="round" stroke-linejoin="round"/>
      <path d="M4.6999 14.7098V10.9039L1.3999 8.99719" stroke="currentColor" stroke-width="1.46667" stroke-linecap="round" stroke-linejoin="round"/>
      <path d="M14.6 8.99719L11.3 10.9039V14.7098" stroke="currentColor" stroke-width="1.46667" stroke-linecap="round" stroke-linejoin="round"/>
      <path d="M1.59814 5.30109L8.00014 9.00441L14.4021 5.30109" stroke="currentColor" stroke-width="1.46667" stroke-linecap="round" stroke-linejoin="round"/>
      <path d="M8 16.3892V8.99719" stroke="currentColor" stroke-width="1.46667" stroke-linecap="round" stroke-linejoin="round"/>
    </symbol>

    <symbol id="calendar" viewBox="0 0 14 16">
      <path fill-rule="evenodd" clip-rule="evenodd" d="M2.33337 3.33329C1.96518 3.33329 1.66671 3.63177 1.66671 3.99996V13.3333C1.66671 13.7015 1.96518 14 2.33337 14H11.6667C12.0349 14 12.3334 13.7015 12.3334 13.3333V3.99996C12.3334 3.63177 12.0349 3.33329 11.6667 3.33329H2.33337ZM0.333374 3.99996C0.333374 2.89539 1.2288 1.99996 2.33337 1.99996H11.6667C12.7713 1.99996 13.6667 2.89539 13.6667 3.99996V13.3333C13.6667 14.4379 12.7713 15.3333 11.6667 15.3333H2.33337C1.2288 15.3333 0.333374 14.4379 0.333374 13.3333V3.99996Z" fill="var(--icon-fill)"/>
      <path fill-rule="evenodd" clip-rule="evenodd" d="M9.66671 0.666626C10.0349 0.666626 10.3334 0.965103 10.3334 1.33329V3.99996C10.3334 4.36815 10.0349 4.66663 9.66671 4.66663C9.29852 4.66663 9.00004 4.36815 9.00004 3.99996V1.33329C9.00004 0.965103 9.29852 0.666626 9.66671 0.666626Z" fill="var(--icon-fill)"/>
      <path fill-rule="evenodd" clip-rule="evenodd" d="M4.33337 0.666626C4.70156 0.666626 5.00004 0.965103 5.00004 1.33329V3.99996C5.00004 4.36815 4.70156 4.66663 4.33337 4.66663C3.96518 4.66663 3.66671 4.36815 3.66671 3.99996V1.33329C3.66671 0.965103 3.96518 0.666626 4.33337 0.666626Z" fill="var(--icon-fill)" />
      <path fill-rule="evenodd" clip-rule="evenodd" d="M0.333374 6.66663C0.333374 6.29844 0.631851 5.99996 1.00004 5.99996H13C13.3682 5.99996 13.6667 6.29844 13.6667 6.66663C13.6667 7.03482 13.3682 7.33329 13 7.33329H1.00004C0.631851 7.33329 0.333374 7.03482 0.333374 6.66663Z" fill="var(--icon-fill)"/>
    </symbol>

    <symbol id="dropdownArrow" viewBox="0 0 12 12">
      <path fill-rule="evenodd" clip-rule="evenodd" d="M9.89442 3.35271C10.0638 3.6915 10.0273 4.09691 9.79999 4.39993L6.8 8.39993C6.61114 8.65173 6.31476 8.79993 6 8.79993C5.68524 8.79993 5.38885 8.65173 5.2 8.39993L2.2 4.39993C1.97274 4.09691 1.93619 3.6915 2.10558 3.35271C2.27497 3.01393 2.62123 2.79993 3 2.79993L9 2.79993C9.37877 2.79993 9.72503 3.01393 9.89442 3.35271Z" fill="var(--icon-fill)"/>
    </symbol>

    <symbol id="chevronDown" viewBox="0 0 16 16" fill="none">
      <path fill-rule="evenodd" clip-rule="evenodd" d="M1.30754 4.30563C0.897488 4.71313 0.897488 5.37383 1.30754 5.78133L7.25755 11.6944C7.6676 12.1019 8.33243 12.1019 8.74248 11.6944L14.6925 5.78134C15.1025 5.37384 15.1025 4.71313 14.6925 4.30563C14.2824 3.89813 13.6177 3.89813 13.2076 4.30563L8.00002 9.48084L2.79246 4.30563C2.38242 3.89812 1.71758 3.89812 1.30754 4.30563Z" fill="#3C3C3C"/>
    </symbol>

    <symbol id="chevronUp" viewBox="0 0 16 16" fill="none">
      <path fill-rule="evenodd" clip-rule="evenodd" d="M1.30754 11.6944C0.897488 11.2869 0.897488 10.6262 1.30754 10.2187L7.25755 4.30564C7.6676 3.89812 8.33243 3.89812 8.74248 4.30564L14.6925 10.2187C15.1025 10.6262 15.1025 11.2869 14.6925 11.6944C14.2824 12.1019 13.6177 12.1019 13.2076 11.6944L8.00002 6.51916L2.79246 11.6944C2.38242 12.1019 1.71758 12.1019 1.30754 11.6944Z" fill="#3C3C3C"/>
    </symbol>

    <symbol id="star" viewBox="0 0 16 16" fill="none">
      <path d="M6.85584 0.762644C7.30708 -0.254213 8.69292 -0.254215 9.14416 0.762642L10.5561 3.94438C10.7398 4.3583 11.116 4.64339 11.5502 4.69768L14.8878 5.11499C15.9545 5.24836 16.3827 6.62303 15.5949 7.38486L13.1299 9.76859C12.8092 10.0787 12.6655 10.54 12.7502 10.9875L13.401 14.4271C13.609 15.5264 12.4879 16.376 11.5498 15.83L8.61438 14.1215C8.23251 13.8992 7.76749 13.8992 7.38562 14.1214L4.45025 15.83C3.51213 16.376 2.39095 15.5264 2.59896 14.4271L3.24981 10.9875C3.33448 10.54 3.19078 10.0787 2.8701 9.7686L0.405093 7.38486C-0.382701 6.62304 0.0455484 5.24836 1.11222 5.11499L4.44984 4.69768C4.88403 4.64339 5.26025 4.3583 5.44393 3.94438L6.85584 0.762644Z" fill="var(--icon-fill)" />
    </symbol>

    <symbol id="preview" viewBox="0 0 16 16">
      <path fill-rule="evenodd" clip-rule="evenodd" d="M1.72557 7.99998C1.79512 8.12017 1.88732 8.27334 2.00155 8.4502C2.29492 8.90446 2.72939 9.50855 3.29344 10.1102C4.43316 11.3259 6.02661 12.4545 7.99965 12.4545C9.9727 12.4545 11.5661 11.3259 12.7059 10.1102C13.2699 9.50855 13.7044 8.90446 13.9978 8.4502C14.112 8.27334 14.2042 8.12017 14.2737 7.99998C14.2042 7.8798 14.112 7.72663 13.9978 7.54977C13.7044 7.09551 13.2699 6.49142 12.7059 5.88976C11.5661 4.67406 9.9727 3.54543 7.99965 3.54543C6.02661 3.54543 4.43316 4.67406 3.29344 5.88976C2.72939 6.49142 2.29492 7.09551 2.00155 7.54977C1.88732 7.72663 1.79512 7.8798 1.72557 7.99998ZM14.9997 7.99998C15.5688 7.71539 15.5686 7.71495 15.5686 7.71495L15.5676 7.7129L15.5654 7.70855L15.5582 7.69442C15.5521 7.68261 15.5435 7.66609 15.5325 7.64517C15.5103 7.60334 15.4782 7.54386 15.4362 7.46925C15.3523 7.32012 15.2288 7.11004 15.0669 6.85928C14.7438 6.359 14.2635 5.69036 13.6344 5.01929C12.3877 3.68953 10.4812 2.27271 7.99965 2.27271C5.51815 2.27271 3.61159 3.68953 2.36494 5.01929C1.73581 5.69036 1.25551 6.359 0.932405 6.85928C0.770459 7.11004 0.646967 7.32012 0.563081 7.46925C0.521114 7.54386 0.488989 7.60334 0.466852 7.64517C0.455781 7.66609 0.447202 7.68261 0.441133 7.69442L0.433911 7.70855L0.431715 7.7129L0.430971 7.71438C0.430971 7.71438 0.430464 7.71539 0.999646 7.99998L0.430464 7.71539C0.340887 7.89455 0.340887 8.10542 0.430464 8.28457L0.999646 7.99998C0.430464 8.28457 0.430464 8.28457 0.430464 8.28457L0.430971 8.28559L0.431715 8.28707L0.433911 8.29141L0.441133 8.30555C0.447202 8.31736 0.455781 8.33388 0.466852 8.3548C0.488989 8.39663 0.521114 8.45611 0.563081 8.53072C0.646967 8.67985 0.770459 8.88993 0.932405 9.14068C1.25551 9.64097 1.73581 10.3096 2.36494 10.9807C3.61159 12.3104 5.51815 13.7273 7.99965 13.7273C10.4812 13.7273 12.3877 12.3104 13.6344 10.9807C14.2635 10.3096 14.7438 9.64097 15.0669 9.14068C15.2288 8.88993 15.3523 8.67985 15.4362 8.53072C15.4782 8.45611 15.5103 8.39663 15.5325 8.3548C15.5435 8.33388 15.5521 8.31736 15.5582 8.30555L15.5654 8.29141L15.5676 8.28707L15.5683 8.28559C15.5683 8.28559 15.5688 8.28457 14.9997 7.99998ZM14.9997 7.99998L15.5688 8.28457C15.6584 8.10542 15.6582 7.8941 15.5686 7.71495L14.9997 7.99998ZM7.99684 6.73028C7.29393 6.73028 6.72411 7.3001 6.72411 8.00301C6.72411 8.70592 7.29393 9.27574 7.99684 9.27574C8.69975 9.27574 9.26957 8.70592 9.26957 8.00301C9.26957 7.3001 8.69975 6.73028 7.99684 6.73028ZM5.45138 8.00301C5.45138 6.59719 6.59102 5.45755 7.99684 5.45755C9.40266 5.45755 10.5423 6.59719 10.5423 8.00301C10.5423 9.40883 9.40266 10.5485 7.99684 10.5485C6.59102 10.5485 5.45138 9.40883 5.45138 8.00301Z" fill="#3C3C3C"/>
    </symbol>

    <symbol id="pause" width="16" height="16" viewBox="0 0 16 16" fill="none">
      <g clip-path="url(#clip0_1381_45912)">
      <path d="M2.5 2C2.5 1.73478 2.60536 1.48043 2.79289 1.29289C2.98043 1.10536 3.23478 1 3.5 1H5.5C5.76521 1 6.01957 1.10536 6.2071 1.29289C6.39464 1.48043 6.49999 1.73478 6.49999 2V14C6.49999 14.2652 6.39464 14.5196 6.2071 14.7071C6.01957 14.8946 5.76521 15 5.5 15H3.5C3.23478 15 2.98043 14.8946 2.79289 14.7071C2.60536 14.5196 2.5 14.2652 2.5 14V2Z" stroke="#1D2939" stroke-width="1.4" stroke-linecap="round" stroke-linejoin="round"/>
      <path d="M9.5 2C9.5 1.73478 9.60536 1.48043 9.79289 1.29289C9.98043 1.10536 10.2348 1 10.5 1H12.5C12.7652 1 13.0196 1.10536 13.2071 1.29289C13.3946 1.48043 13.5 1.73478 13.5 2V14C13.5 14.2652 13.3946 14.5196 13.2071 14.7071C13.0196 14.8946 12.7652 15 12.5 15H10.5C10.2348 15 9.98043 14.8946 9.79289 14.7071C9.60536 14.5196 9.5 14.2652 9.5 14V2Z" stroke="#1D2939" stroke-width="1.4" stroke-linecap="round" stroke-linejoin="round"/>
      </g>
      <defs>
      <clipPath id="clip0_1381_45912">
      <rect width="16" height="16" fill="white"/>
      </clipPath>
      </defs>
    </symbol>

    <symbol id="trash" width="16" height="16" viewBox="0 0 16 16" fill="none">
      <g clip-path="url(#clip0_1381_45921)">
      <path d="M1.77808 4.11133H14.2219" stroke="#D11949" stroke-width="1.55548" stroke-linecap="round" stroke-linejoin="round"/>
      <path d="M6.44458 7.22266V11.8891" stroke="#D11949" stroke-width="1.55548" stroke-linecap="round" stroke-linejoin="round"/>
      <path d="M9.55542 7.22266V11.8891" stroke="#D11949" stroke-width="1.55548" stroke-linecap="round" stroke-linejoin="round"/>
      <path d="M2.55579 4.11133L3.33352 13.4442C3.33352 13.8567 3.4974 14.2524 3.78911 14.5441C4.08082 14.8358 4.47646 14.9997 4.889 14.9997H11.1109C11.5234 14.9997 11.9191 14.8358 12.2108 14.5441C12.5025 14.2524 12.6664 13.8567 12.6664 13.4442L13.4441 4.11133" stroke="#D11949" stroke-width="1.55548" stroke-linecap="round" stroke-linejoin="round"/>
      <path d="M5.66675 4.11095V1.77774C5.66675 1.57147 5.74869 1.37365 5.89454 1.22779C6.0404 1.08194 6.23822 1 6.44449 1H9.55544C9.76171 1 9.95953 1.08194 10.1054 1.22779C10.2512 1.37365 10.3332 1.57147 10.3332 1.77774V4.11095" stroke="#D11949" stroke-width="1.55548" stroke-linecap="round" stroke-linejoin="round"/>
      </g>
      <defs>
      <clipPath id="clip0_1381_45921">
      <rect width="16" height="16" fill="white"/>
      </clipPath>
      </defs>
    </symbol>

    <symbol id="csvFile" width="16" height="16" viewBox="0 0 16 16" fill="none">
      <g clip-path="url(#clip0_1386_8322)">
      <path d="M9.33331 2V4.66667C9.33331 4.84348 9.40355 5.01305 9.52858 5.13807C9.6536 5.2631 9.82317 5.33333 9.99998 5.33333H12.6666" stroke="#101828" stroke-width="1.33333" stroke-linecap="round" stroke-linejoin="round"/>
      <path d="M3.33331 8.66667V3.33333C3.33331 2.97971 3.47379 2.64057 3.72384 2.39052C3.97389 2.14048 4.31302 2 4.66665 2H9.33331L12.6666 5.33333V12.6667C12.6666 13.0203 12.5262 13.3594 12.2761 13.6095C12.0261 13.8595 11.6869 14 11.3333 14H7.66665M1.33331 12.6667H5.99998M5.99998 12.6667L3.99998 10.6667M5.99998 12.6667L3.99998 14.6667" stroke="#101828" stroke-width="1.33333" stroke-linecap="round" stroke-linejoin="round"/>
      </g>
      <defs>
      <clipPath id="clip0_1386_8322">
      <rect width="16" height="16" fill="white"/>
      </clipPath>
      </defs>
    </symbol>

    <symbol id="edit" viewBox="0 0 16 16" fill="none">
      <g clip-path="url(#clip0_2897_6258)">
      <path d="M11.3335 2.00004C11.5086 1.82494 11.7165 1.68605 11.9452 1.59129C12.174 1.49653 12.4192 1.44775 12.6668 1.44775C12.9145 1.44775 13.1597 1.49653 13.3884 1.59129C13.6172 1.68605 13.8251 1.82494 14.0002 2.00004C14.1753 2.17513 14.3142 2.383 14.4089 2.61178C14.5037 2.84055 14.5524 3.08575 14.5524 3.33337C14.5524 3.58099 14.5037 3.82619 14.4089 4.05497C14.3142 4.28374 14.1753 4.49161 14.0002 4.66671L5.00016 13.6667L1.3335 14.6667L2.3335 11L11.3335 2.00004Z" stroke="#3C3C3C" stroke-width="1.33333" stroke-linecap="round" stroke-linejoin="round"/>
      </g>
      <defs>
      <clipPath id="clip0_2897_6258">
      <rect width="16" height="16" fill="white"/>
      </clipPath>
      </defs>
    </symbol>

    <symbol id="arrowHeadBottom" width="17" height="16" viewBox="0 0 17 16" fill="none">
      <path fill-rule="evenodd" clip-rule="evenodd" d="M13.4259 4.73705C13.6517 5.18876 13.603 5.72931 13.3 6.13333L9.29998 11.4667C9.04818 11.8024 8.65299 12 8.23332 12C7.81364 12 7.41846 11.8024 7.16665 11.4667L3.16666 6.13333C2.86364 5.72931 2.8149 5.18876 3.04075 4.73705C3.26661 4.28534 3.72829 4 4.23332 4L12.2333 4C12.7383 4 13.2 4.28534 13.4259 4.73705Z" fill="#353535"/>
    </symbol>

    <symbol id="more" viewBox="0 0 17 16" >
      <path d="M7.1665 3C7.1665 2.17157 7.83808 1.5 8.6665 1.5C9.49493 1.5 10.1665 2.17157 10.1665 3C10.1665 3.82843 9.49493 4.5 8.6665 4.5C7.83808 4.5 7.1665 3.82843 7.1665 3Z" fill="#818181"/>
      <path d="M7.1665 8C7.1665 7.17157 7.83808 6.5 8.6665 6.5C9.49493 6.5 10.1665 7.17157 10.1665 8C10.1665 8.82843 9.49493 9.5 8.6665 9.5C7.83808 9.5 7.1665 8.82843 7.1665 8Z" fill="#818181"/>
      <path d="M7.1665 13C7.1665 12.1716 7.83808 11.5 8.6665 11.5C9.49493 11.5 10.1665 12.1716 10.1665 13C10.1665 13.8284 9.49493 14.5 8.6665 14.5C7.83808 14.5 7.1665 13.8284 7.1665 13Z" fill="#818181"/>
    </symbol>

    <symbol id="plus" viewBox="0 0 16 16">
      <g clip-path="url(#clip0_3176_3247)">
      <path d="M9.04348 1.04348C9.04348 0.766731 8.93354 0.501318 8.73785 0.305628C8.54216 0.109937 8.27675 0 8 0C7.72325 0 7.45784 0.109937 7.26215 0.305628C7.06646 0.501318 6.95652 0.766731 6.95652 1.04348V6.95652H1.04348C0.766731 6.95652 0.501318 7.06646 0.305628 7.26215C0.109937 7.45784 0 7.72325 0 8C0 8.27675 0.109937 8.54216 0.305628 8.73785C0.501318 8.93354 0.766731 9.04348 1.04348 9.04348H6.95652V14.9565C6.95652 15.2333 7.06646 15.4987 7.26215 15.6944C7.45784 15.8901 7.72325 16 8 16C8.27675 16 8.54216 15.8901 8.73785 15.6944C8.93354 15.4987 9.04348 15.2333 9.04348 14.9565V9.04348H14.9565C15.2333 9.04348 15.4987 8.93354 15.6944 8.73785C15.8901 8.54216 16 8.27675 16 8C16 7.72325 15.8901 7.45784 15.6944 7.26215C15.4987 7.06646 15.2333 6.95652 14.9565 6.95652H9.04348V1.04348Z" fill="var(--icon-fill)" />
      </g>
      <defs>
      <clipPath id="clip0_3176_3247">
      <rect width="16" height="16" />
      </clipPath>
      </defs>
    </symbol>

    <symbol id="exit" viewBox="0 0 16 16" fill="none">
      <g clip-path="url(#clip0_3329_2470)">
      <path d="M3.81885 2.34315C3.62316 2.14746 3.35774 2.03752 3.081 2.03752C2.80425 2.03752 2.53884 2.14746 2.34314 2.34315C2.14745 2.53884 2.03752 2.80425 2.03752 3.081C2.03752 3.35774 2.14745 3.62316 2.34315 3.81885L6.5243 8L2.34315 12.1812C2.14745 12.3768 2.03752 12.6423 2.03752 12.919C2.03752 13.1958 2.14745 13.4612 2.34314 13.6569C2.53884 13.8525 2.80425 13.9625 3.081 13.9625C3.35774 13.9625 3.62316 13.8525 3.81885 13.6569L8 9.4757L12.1812 13.6569C12.3768 13.8525 12.6423 13.9625 12.919 13.9625C13.1958 13.9625 13.4612 13.8525 13.6569 13.6569C13.8525 13.4612 13.9625 13.1958 13.9625 12.919C13.9625 12.6423 13.8525 12.3768 13.6569 12.1812L9.4757 8L13.6569 3.81885C13.8525 3.62316 13.9625 3.35774 13.9625 3.081C13.9625 2.80425 13.8525 2.53884 13.6569 2.34315C13.4612 2.14746 13.1958 2.03752 12.919 2.03752C12.6423 2.03752 12.3768 2.14746 12.1812 2.34315L8 6.5243L3.81885 2.34315Z" fill="var(--icon-fill)"/>
      </g>
      <defs>
      <clipPath id="clip0_3329_2470">
      <rect width="16" height="16" fill="white"/>
      </clipPath>
      </defs>
    </symbol>
  </defs>
</svg>